<svg width="22" height="36" viewBox="0 0 22 36" fill="none" xmlns="http://www.w3.org/2000/svg">
<path d="M11.0002 8.83325C5.94016 8.83325 1.8335 12.9399 1.8335 17.9999C1.8335 23.0599 5.94016 27.1666 11.0002 27.1666C16.0602 27.1666 20.1668 23.0599 20.1668 17.9999C20.1668 12.9399 16.0602 8.83325 11.0002 8.83325ZM11.0002 25.3333C6.95766 25.3333 3.66683 22.0424 3.66683 17.9999C3.66683 13.9574 6.95766 10.6666 11.0002 10.6666C15.0427 10.6666 18.3335 13.9574 18.3335 17.9999C18.3335 22.0424 15.0427 25.3333 11.0002 25.3333ZM15.2077 13.9483L9.16683 19.9891L6.79266 17.6241L5.50016 18.9166L9.16683 22.5833L16.5002 15.2499L15.2077 13.9483Z" fill="white"/>
</svg>
